<svg height="512pt" viewBox="0 -16 512.00102 512" width="512pt" xmlns="http://www.w3.org/2000/svg">

<path d="m266 223.0625v-26.550781c0-5.523438-4.476562-10-10-10s-10 4.476562-10 10v26.550781c0 5.519531 4.476562 10 10 10s10-4.480469 10-10zm0 0" fill='white' />
<path d="m338.558594 221.859375c2.558594 0 5.117187-.976563 7.070312-2.929687 3.90625-3.90625 3.90625-10.238282 0-14.144532l-18.773437-18.773437c-3.902344-3.902344-10.234375-3.902344-14.140625 0-3.90625 3.90625-3.90625 10.238281 0 14.144531l18.773437 18.773438c1.949219 1.953124 4.511719 2.929687 7.070313 2.929687zm0 0" fill='white' />
<path d="m166.371094 218.929688c1.953125 1.953124 4.511718 2.929687 7.070312 2.929687s5.121094-.976563 7.070313-2.929687l18.773437-18.773438c3.90625-3.902344 3.90625-10.234375 0-14.140625s-10.238281-3.90625-14.140625 0l-18.773437 18.773437c-3.90625 3.902344-3.90625 10.234376 0 14.140626zm0 0" fill='white' />
<path d="m170.773438 128.671875c-2.554688-4.894531-8.59375-6.792969-13.488282-4.238281-.015625.003906-.101562.050781-.140625.070312-4.890625 2.53125-6.816406 8.542969-4.304687 13.445313 1.773437 3.453125 5.277344 5.4375 8.910156 5.4375 1.535156 0 3.09375-.351563 4.554688-1.101563l.230468-.121094c4.894532-2.554687 6.792969-8.597656 4.238282-13.492187zm0 0" fill='white' />
<path d="m502 420h-79.269531l41.738281-98.789062c26.761719-3.367188 47.53125-26.246094 47.53125-53.902344 0-29.96875-24.382812-54.347656-54.347656-54.347656-4.542969 0-9.101563.601562-13.523438 1.734374-17.085937-33.175781-42.554687-61.179687-74.105468-81.355468-34.109376-21.8125-73.535157-33.339844-114.023438-33.339844-18.488281 0-36.921875 2.425781-54.78125 7.214844-5.335938 1.429687-8.5 6.910156-7.070312 12.246094 1.195312 4.46875 5.238281 7.414062 9.652343 7.414062.855469 0 1.730469-.109375 2.597657-.34375 16.171874-4.332031 32.859374-6.53125 49.601562-6.53125 74.449219 0 142.734375 43.667969 173.96875 111.246094 1.6875 3.65625 5.304688 5.808594 9.085938 5.808594 1.089843 0 2.195312-.1875 3.269531-.5625.015625-.003907.03125-.011719.046875-.015626.292968-.105468.585937-.214843.871094-.347656.007812-.003906.015624-.007812.023437-.011718.003906-.003907.007813-.003907.011719-.003907 4.476562-2.0625 9.445312-3.152343 14.375-3.152343 18.9375 0 34.347656 15.40625 34.347656 34.347656 0 18.933594-15.402344 34.339844-34.335938 34.34375-.007812 0-.015624 0-.023437 0-15.523437 0-33.828125-6.371094-51.53125-12.527344-18.570313-6.460938-36.105469-12.5625-52.289063-12.5625-16.0625 0-30.824218 6.214844-45.097656 12.222656-15.027344 6.328125-30.566406 12.867188-48.539062 12.867188h-8.367188c-17.976562 0-33.515625-6.539063-48.539062-12.867188-14.277344-6.007812-29.039063-12.222656-45.101563-12.222656-16.179687 0-33.71875 6.101562-52.285156 12.5625-17.695313 6.15625-35.996094 12.519531-51.515625 12.527344-.019531 0-.039062 0-.058594 0-18.925781-.011719-34.316406-15.414063-34.316406-34.34375 0-18.9375 15.40625-34.347656 34.347656-34.347656 4.929688 0 9.898438 1.089843 14.375 3.152343.003906 0 .007813.003907.011719.003907.007813.003906.015625.007812.023437.011718.269532.125.546876.230469.824219.328125.03125.011719.0625.027344.09375.035157 1.074219.375 2.179688.5625 3.269531.5625 3.777344 0 7.394532-2.152344 9.085938-5.808594 13.808594-29.882813 35.226562-55.847656 61.9375-75.09375 4.480469-3.226563 5.496094-9.476563 2.269531-13.957032-3.230469-4.480468-9.480469-5.5-13.960937-2.269531-27.035156 19.480469-49.140625 45.207031-64.390625 74.773438-4.425781-1.136719-8.992188-1.738281-13.539063-1.738281-29.96875 0-54.347656 24.378906-54.347656 54.34375 0 27.65625 20.769531 50.539062 47.527344 53.90625l41.742187 98.789062h-79.269531c-5.523438 0-10 4.480469-10 10 0 5.523438 4.476562 10 10 10h16v10c0 16.542969 13.457031 30 30 30h400c16.542969 0 30-13.457031 30-30v-10h16c5.523438 0 10-4.476562 10-10 0-5.519531-4.476562-10-10-10zm-433.089844-99.570312c14.417969-2.285157 29.167969-7.410157 43.550782-12.414063 16.929687-5.890625 32.914062-11.453125 45.71875-11.453125 12.023437 0 23.753906 4.9375 37.339843 10.65625 16.070313 6.765625 34.285157 14.433594 56.296875 14.433594h8.367188c22.011718 0 40.226562-7.667969 56.296875-14.433594 13.585937-5.71875 25.316406-10.65625 37.339843-10.65625 12.804688 0 28.792969 5.5625 45.71875 11.453125 14.382813 5.003906 29.136719 10.128906 43.550782 12.414063l-42.070313 99.570312h-290.039062zm397.089844 129.570312c0 5.515625-4.488281 10-10 10h-400c-5.515625 0-10-4.484375-10-10v-10h420zm0 0" fill='white' />
<path d="m307.882812 390h-.234374c-5.523438 0-10 4.480469-10 10 0 5.523438 4.476562 10 10 10h.234374c5.523438 0 10-4.476562 10-10 0-5.519531-4.476562-10-10-10zm0 0" fill='white' />
<path d="m377.648438 390h-41.03125c-5.523438 0-10 4.476562-10 10s4.476562 10 10 10h41.03125c5.523437 0 10-4.476562 10-10s-4.476563-10-10-10zm0 0" fill='white' />
<path d="m248.703125 59.914062c-3.902344 3.90625-3.90625 10.234376 0 14.140626 1.953125 1.953124 4.511719 2.929687 7.074219 2.929687 2.558594 0 5.117187-.976563 7.070312-2.929687 14.972656-14.96875 6.871094-31.089844 2.03125-40.722657-5.554687-11.054687-5.34375-12.949219-2.03125-16.261719 3.902344-3.902343 3.902344-10.234374 0-14.140624-3.90625-3.90625-10.238281-3.90625-14.144531 0-14.296875 14.296874-6.40625 30-1.695313 39.378906 5.550782 11.046875 5.789063 13.515625 1.695313 17.605468zm0 0" fill='white' />
<path d="m157.164062 79.914062c-3.902343 3.90625-3.90625 10.234376 0 14.140626 1.953126 1.953124 4.511719 2.929687 7.074219 2.929687 2.558594 0 5.117188-.976563 7.070313-2.925781 14.972656-14.972656 6.871094-31.09375 2.03125-40.726563-5.554688-11.050781-5.34375-12.949219-2.03125-16.257812 3.902344-3.90625 3.902344-10.238281 0-14.144531-3.90625-3.902344-10.238282-3.902344-14.144532 0-14.296874 14.296874-6.40625 30-1.695312 39.382812 5.550781 11.042969 5.789062 13.511719 1.695312 17.601562zm0 0" fill='white' />
<path d="m340.242188 79.914062c-3.902344 3.90625-3.90625 10.234376 0 14.140626 1.953124 1.953124 4.511718 2.929687 7.070312 2.929687 2.5625 0 5.121094-.976563 7.074219-2.925781 14.972656-14.972656 6.871093-31.09375 2.03125-40.726563-5.554688-11.050781-5.34375-12.949219-2.03125-16.257812 3.902343-3.90625 3.902343-10.238281 0-14.144531-3.90625-3.902344-10.238281-3.902344-14.144531 0-14.296876 14.296874-6.40625 30-1.695313 39.382812 5.550781 11.042969 5.789063 13.511719 1.695313 17.601562zm0 0" fill='white' />

</svg>